<?xml version="1.0" encoding="iso-8859-1"?>
<!-- Generator: Adobe Illustrator 19.0.0, SVG Export Plug-In . SVG Version: 6.00 Build 0)  -->
<svg version="1.1" id="Layer_1" xmlns="http://www.w3.org/2000/svg" xmlns:xlink="http://www.w3.org/1999/xlink" x="0px" y="0px"
	 viewBox="0 0 512 512" style="enable-background:new 0 0 512 512;" xml:space="preserve">
<path style="fill:#FFA733;" d="M487.624,82.699l-47.193-47.193c-6.567-6.567-17.141-6.567-23.597,0L178.087,274.254v-85.037
	c0-9.238-7.457-16.696-16.696-16.696H83.478C37.398,172.522,0,209.92,0,256v133.565c0,27.715,22.372,50.087,50.087,50.087h128
	v-94.609h70.79l238.748-238.748C494.191,99.84,494.191,89.266,487.624,82.699z"/>
<path style="fill:#7F8189;" d="M461.913,439.652H178.087v-116.87h317.217c9.22,0,16.696,7.475,16.696,16.696v50.087
	C512,417.228,489.576,439.652,461.913,439.652z"/>
<path style="fill:#757880;" d="M495.304,322.783H339.478v116.87h122.435c27.662,0,50.087-22.424,50.087-50.087v-50.087
	C512,330.258,504.525,322.783,495.304,322.783z"/>
<g>
	<path style="fill:#5D5F66;" d="M111.304,172.522v116.87c0,9.238-7.457,16.696-16.696,16.696H0V256
		c0-46.08,37.398-83.478,83.478-83.478H111.304z"/>
	<path style="fill:#5D5F66;" d="M116.87,489.739c-27.619,0-50.087-22.468-50.087-50.087s22.468-50.087,50.087-50.087
		s50.087,22.468,50.087,50.087S144.489,489.739,116.87,489.739z"/>
</g>
<path style="fill:#55575C;" d="M166.957,439.652c0-27.619-22.468-50.087-50.087-50.087v100.174
	C144.489,489.739,166.957,467.271,166.957,439.652z"/>
<path style="fill:#E7ECFD;" d="M116.87,422.957c-9.206,0-16.696,7.49-16.696,16.696c0,9.206,7.49,16.696,16.696,16.696
	s16.696-7.49,16.696-16.696C133.565,430.446,126.076,422.957,116.87,422.957z"/>
<path style="fill:#CAD1D7;" d="M133.565,439.652c0-9.206-7.49-16.696-16.696-16.696v33.391
	C126.076,456.348,133.565,448.858,133.565,439.652z"/>
<path style="fill:#5D5F66;" d="M267.13,489.739c-27.619,0-50.087-22.468-50.087-50.087s22.468-50.087,50.087-50.087
	s50.087,22.468,50.087,50.087S294.749,489.739,267.13,489.739z"/>
<path style="fill:#55575C;" d="M317.217,439.652c0-27.619-22.468-50.087-50.087-50.087v100.174
	C294.749,489.739,317.217,467.271,317.217,439.652z"/>
<path style="fill:#E7ECFD;" d="M267.13,422.957c-9.206,0-16.696,7.49-16.696,16.696c0,9.206,7.49,16.696,16.696,16.696
	c9.206,0,16.696-7.49,16.696-16.696C283.826,430.446,276.336,422.957,267.13,422.957z"/>
<path style="fill:#CAD1D7;" d="M283.826,439.652c0-9.206-7.49-16.696-16.696-16.696v33.391
	C276.336,456.348,283.826,448.858,283.826,439.652z"/>
<path style="fill:#5D5F66;" d="M411.826,489.739c-27.619,0-50.087-22.468-50.087-50.087s22.468-50.087,50.087-50.087
	c27.619,0,50.087,22.468,50.087,50.087S439.445,489.739,411.826,489.739z"/>
<path style="fill:#55575C;" d="M461.913,439.652c0-27.619-22.468-50.087-50.087-50.087v100.174
	C439.445,489.739,461.913,467.271,461.913,439.652z"/>
<path style="fill:#E7ECFD;" d="M411.826,422.957c-9.206,0-16.696,7.49-16.696,16.696c0,9.206,7.49,16.696,16.696,16.696
	c9.206,0,16.696-7.49,16.696-16.696C428.522,430.446,421.032,422.957,411.826,422.957z"/>
<path style="fill:#CAD1D7;" d="M428.522,439.652c0-9.206-7.49-16.696-16.696-16.696v33.391
	C421.032,456.348,428.522,448.858,428.522,439.652z"/>
<path style="fill:#E7ECFD;" d="M50.087,372.87H0v-33.391h50.087c9.22,0,16.696,7.475,16.696,16.696l0,0
	C66.783,365.394,59.307,372.87,50.087,372.87z"/>
<path style="fill:#CC7400;" d="M440.431,35.506c-6.567-6.567-17.141-6.567-23.597,0l-77.357,77.357v141.579l148.146-148.146
	c6.567-6.456,6.567-17.03,0-23.597L440.431,35.506z"/>
<path style="fill:#DBDFE3;" d="M450.783,55.652c-9.206,0-16.696,7.49-16.696,16.696s7.49,16.696,16.696,16.696
	c9.206,0,16.696-7.49,16.696-16.696S459.989,55.652,450.783,55.652z"/>
<path style="fill:#CAD1D7;" d="M467.478,72.348c0-9.206-7.49-16.696-16.696-16.696v33.391
	C459.989,89.043,467.478,81.554,467.478,72.348z"/>
<path style="fill:#7F8189;" d="M500.87,239.304c0,27.603-22.483,50.087-50.087,50.087s-50.087-22.483-50.087-50.087
	c0-9.238,7.457-16.696,16.696-16.696s16.696,7.457,16.696,16.696S441.544,256,450.783,256s16.696-7.457,16.696-16.696
	c0-6.233-3.45-11.91-8.904-14.803c-2.783-1.447-5.454-3.228-7.791-5.343c-10.463-8.682-16.696-22.483-16.696-37.51v-62.108
	c0-9.238,7.457-16.696,16.696-16.696s16.696,7.457,16.696,16.696v62.108c0,5.899,2.671,11.242,6.567,13.357
	C490.63,203.687,500.87,220.605,500.87,239.304z"/>
<path style="fill:#757880;" d="M500.87,239.304c0,27.603-22.483,50.087-50.087,50.087V256c9.238,0,16.696-7.457,16.696-16.696
	c0-6.233-3.45-11.91-8.904-14.803c-2.783-1.447-5.454-3.228-7.791-5.343V102.845c9.238,0,16.696,7.457,16.696,16.696v62.108
	c0,5.899,2.671,11.242,6.567,13.357C490.63,203.687,500.87,220.605,500.87,239.304z"/>
<path style="fill:#5D5F66;" d="M450.783,122.435c-27.619,0-50.087-22.468-50.087-50.087s22.468-50.087,50.087-50.087
	s50.087,22.468,50.087,50.087S478.402,122.435,450.783,122.435z"/>
<path style="fill:#55575C;" d="M500.87,72.348c0-27.619-22.468-50.087-50.087-50.087v100.174
	C478.402,122.435,500.87,99.967,500.87,72.348z"/>
<g>
</g>
<g>
</g>
<g>
</g>
<g>
</g>
<g>
</g>
<g>
</g>
<g>
</g>
<g>
</g>
<g>
</g>
<g>
</g>
<g>
</g>
<g>
</g>
<g>
</g>
<g>
</g>
<g>
</g>
</svg>
